<svg width="60" height="60" viewBox="0 0 60 60" fill="none" xmlns="http://www.w3.org/2000/svg">
<circle cx="30" cy="30" r="29.5" stroke="#646464" stroke-opacity="0.5"/>
<path d="M22.3315 25.9134L24.0997 29.0078C24.3765 29.4923 24.5149 29.7345 24.5149 30.0001C24.5149 30.2656 24.3765 30.5079 24.0997 30.9924L22.3315 34.0867C21.0932 36.2538 20.474 37.3373 20.9568 37.8746C21.4396 38.4119 22.583 37.9117 24.8696 36.9113L36.4785 31.8324C38.274 31.0469 39.1718 30.6541 39.1718 30.0001C39.1718 29.3461 38.274 28.9533 36.4785 28.1678L24.8696 23.0889C22.583 22.0885 21.4396 21.5883 20.9568 22.1256C20.474 22.6629 21.0932 23.7464 22.3315 25.9134Z" fill="#813057"/>
</svg>
