<svg width="523" height="45" viewBox="0 0 523 45" fill="none" xmlns="http://www.w3.org/2000/svg">
<path d="M11.694 24.0792C15.0314 23.662 18.1207 20.1699 21.956 20.1699C27.165 20.1699 25.0644 21.9096 28.2543 24.5679C33.6147 29.0348 40.7335 20.3942 43.7287 17.998C48.1601 14.453 58.0213 17.3909 59.5289 22.6675C62.0494 31.4894 71.4452 21.367 74.026 17.2379C75.7904 14.4148 81.7389 14.0773 83.0934 17.2379C84.1792 19.7713 86.9485 20.3631 86.9485 23.5905C86.9485 25.2852 87.555 25.9576 87.9801 27.4456C88.586 29.5664 97.0944 31.6926 98.4592 29.5088C99.5882 27.7025 101.146 27.1241 102.586 25.5995C103.935 24.1709 104.383 21.6208 105.518 19.9527C107.751 16.6683 111.934 15.2832 115.78 15.2832C117.738 15.2832 118.859 15.8047 120.666 16.2063C122.829 16.6867 121.673 17.9743 122.621 19.6812C123.128 20.5939 122.693 23.7996 123.707 24.0249C125.869 24.5054 128.668 24.0792 130.874 24.0792C134.976 24.0792 141.478 21.6335 143.579 17.7808C145.074 15.0412 150.635 16.2606 153.407 16.2606C155.927 16.2606 159.658 20.9944 162.203 22.3417C164.61 23.616 166.897 26.0339 169.533 26.0339C173.886 26.0339 174.615 24.2155 178.275 22.1245C180.725 20.7245 182.616 18.0362 185.659 18.2152C188.981 18.4106 191.594 23.0926 194.02 25.0565C195.892 26.5715 202.173 29.8902 204.717 28.4772C207.699 26.8203 213.024 20.9043 213.947 17.6723C216.156 9.94124 228.891 24.8521 230.833 26.794C235.074 31.0347 239.049 23.8875 241.801 21.6359C243.436 20.2979 242.788 18.5343 244.842 18.1609C248.479 17.4995 247.666 17.4801 250.706 19.1382C253.555 20.6926 257.438 24.1672 259.176 27.0112C261.912 31.4889 267.962 27.4939 270.687 25.0565C272.605 23.3404 276.529 18.166 279.483 19.4097C283.773 21.2161 282.478 24.1426 285.347 27.0112C290.848 32.5125 292.828 26.7445 298.921 24.1335C301.664 22.9575 303.771 17.8674 306.359 17.2922C315.137 15.3416 311.49 33.7319 319.445 27.337C322.254 25.0784 330.074 20.8048 331.281 17.1836C333.016 11.9792 334.73 17.7753 335.245 20.6042C335.891 24.1596 339.926 25.2278 343.009 25.0565C348.168 24.7699 347.776 17.138 351.045 14.5231C358.256 8.75383 361.578 26.5855 361.578 31.4092C361.578 36.5045 371.26 29.2343 372.329 27.7713C373.72 25.8681 377.987 21.7372 380.148 20.3871C381.056 19.8192 382.102 16.7636 382.102 17.8351C382.102 19.4278 382.102 21.0205 382.102 22.6132C382.102 26.2445 388.746 24.7786 390.844 24.0792C398.796 21.4285 396.851 8.60091 404.092 21.6359C406.024 25.1127 407.211 26.2678 411.422 26.0339C415.966 25.7814 416.702 19.2915 418.264 16.2606C419.045 14.7433 420.672 10.3844 421.141 12.0255C421.699 13.9771 422.427 15.6837 423.15 17.6723C423.966 19.9149 425.419 26.6419 428.254 26.9569C431.338 27.2995 438.924 28.2019 440.959 25.0565C442.175 23.1782 446.351 18.5157 446.606 23.1019C446.811 26.7826 447.208 29.766 451.058 30.8662C456.164 32.325 457.443 27.1268 458.877 23.6448C461.993 16.0785 465.871 16.4784 470.822 22.6675C472.009 24.1505 473.849 24.8027 473.971 27.0112C473.997 27.4666 473.769 31.4635 474.189 31.4635C476.776 31.4635 479.986 25.712 481.301 24.1335C482.026 23.2643 487.654 16.6542 487.654 21.6359C487.654 23.135 486.846 29.8381 488.631 29.9432C491.032 30.0844 491.438 29.3295 493.301 27.9885C495.205 26.6172 496.449 25.1267 498.187 23.862C499.577 22.8515 498.694 21.2923 499.599 20.3871C501.133 18.8534 504.221 21.0999 505.246 22.1245C507.569 24.4479 511.11 28.4832 511.11 31.8978" stroke="#813057" stroke-opacity="0.35" stroke-width="22" stroke-linecap="round"/>
</svg>
